<svg width="24" height="24" viewBox="0 0 24 24" fill="none" xmlns="http://www.w3.org/2000/svg">
<g clip-path="url(#clip0_3766_16489)">
<path fill-rule="evenodd" clip-rule="evenodd" d="M24 12C24 18.6 18.6 24 12 24C5.4 24 0 18.6 0 12C0 5.4 5.4 0 12 0C18.6 0 24 5.4 24 12Z" fill="url(#paint0_linear_3766_16489)"/>
<path fill-rule="evenodd" clip-rule="evenodd" d="M24 12C24 18.6 18.6 24 12 24C5.4 24 0 18.6 0 12C0 5.4 5.4 0 12 0C18.6 0 24 5.4 24 12Z" fill="url(#paint1_radial_3766_16489)"/>
<path fill-rule="evenodd" clip-rule="evenodd" d="M24 12C24 18.6 18.6 24 12 24C5.4 24 0 18.6 0 12C0 5.4 5.4 0 12 0C18.6 0 24 5.4 24 12Z" fill="url(#paint2_radial_3766_16489)"/>
<path fill-rule="evenodd" clip-rule="evenodd" d="M24 12C24 18.6 18.6 24 12 24C5.4 24 0 18.6 0 12C0 5.4 5.4 0 12 0C18.6 0 24 5.4 24 12Z" fill="url(#paint3_radial_3766_16489)"/>
<path fill-rule="evenodd" clip-rule="evenodd" d="M24 12C24 18.6 18.6 24 12 24C5.4 24 0 18.6 0 12C0 5.4 5.4 0 12 0C18.6 0 24 5.4 24 12Z" fill="url(#paint4_radial_3766_16489)"/>
<path fill-rule="evenodd" clip-rule="evenodd" d="M24 12C24 18.6 18.6 24 12 24C5.4 24 0 18.6 0 12C0 5.4 5.4 0 12 0C18.6 0 24 5.4 24 12Z" fill="url(#paint5_radial_3766_16489)"/>
<path fill-rule="evenodd" clip-rule="evenodd" d="M14.5498 8.8502C14.3998 8.4002 9.59976 8.4002 9.44976 8.8502C9.29976 9.3002 10.3498 9.9002 11.9998 9.9002C13.6498 9.9002 14.6998 9.3002 14.5498 8.8502Z" fill="url(#paint6_linear_3766_16489)"/>
<path fill-rule="evenodd" clip-rule="evenodd" d="M9.0001 6.1498C9.0001 7.1998 8.4001 7.4998 7.5001 7.6498C6.6001 7.7998 5.8501 7.3498 5.8501 6.1498C5.8501 5.2498 6.3001 4.0498 7.5001 4.0498C8.5501 4.0498 9.0001 5.2498 9.0001 6.1498Z" fill="url(#paint7_radial_3766_16489)"/>
<path fill-rule="evenodd" clip-rule="evenodd" d="M7.3498 4.64961C7.4998 4.79961 7.4998 5.24961 7.1998 5.39961C7.0498 5.54961 6.7498 5.69961 6.5998 5.39961C6.4498 5.09961 6.4498 4.94961 6.5998 4.64961C6.8998 4.49961 7.1998 4.49961 7.3498 4.64961Z" fill="#4E506A"/>
<path fill-rule="evenodd" clip-rule="evenodd" d="M15 6.1498C15 7.1998 15.6 7.4998 16.65 7.6498C17.55 7.7998 18.3 7.3498 18.3 6.1498C18.3 5.2498 17.85 4.0498 16.65 4.0498C15.45 4.0498 15 5.2498 15 6.1498Z" fill="url(#paint8_radial_3766_16489)"/>
<path fill-rule="evenodd" clip-rule="evenodd" d="M16.5001 4.6498C16.6501 4.7998 16.5001 5.0998 16.3501 5.3998C16.2001 5.5498 15.9001 5.5498 15.7501 5.3998C15.6001 5.2498 15.7501 4.9498 15.9001 4.6498C16.2001 4.3498 16.3501 4.3498 16.5001 4.6498Z" fill="#4E506A"/>
<path fill-rule="evenodd" clip-rule="evenodd" d="M5.09976 3.14976C4.79976 3.44976 5.09976 3.89976 5.54976 3.74976C6.44976 3.29976 8.24976 2.84976 9.74976 2.99976C10.1998 2.99976 10.3498 2.99976 10.1998 2.39976C10.1998 1.94976 9.59976 1.64976 8.39976 1.79976C6.59976 1.94976 5.39976 2.84976 5.09976 3.14976Z" fill="url(#paint9_radial_3766_16489)"/>
<path fill-rule="evenodd" clip-rule="evenodd" d="M15.5999 1.79976C14.3999 1.64976 13.7999 1.94976 13.7999 2.39976C13.6499 2.99976 13.7999 2.99976 14.2499 2.99976C15.8999 2.84976 17.6999 3.29976 18.4499 3.74976C19.0499 4.04976 19.1999 3.44976 18.8999 3.14976C18.5999 2.84976 17.3999 1.94976 15.5999 1.79976Z" fill="url(#paint10_radial_3766_16489)"/>
<path fill-rule="evenodd" clip-rule="evenodd" d="M14.5499 12.7499C11.3999 11.8499 10.3499 13.9499 10.3499 13.9499C10.3499 13.9499 10.6499 11.5499 7.49995 10.4999C4.49995 9.59989 2.69995 12.4499 2.54995 14.0999C2.24995 17.8499 5.54995 22.0499 6.74995 23.5499C6.89995 23.9999 7.34995 23.9999 7.79995 23.9999C9.59995 23.5499 14.6999 21.8999 16.6499 18.5999C17.3999 16.9499 17.5499 13.6499 14.5499 12.7499Z" fill="url(#paint11_linear_3766_16489)"/>
<path fill-rule="evenodd" clip-rule="evenodd" d="M14.5499 12.7499C11.3999 11.8499 10.3499 13.9499 10.3499 13.9499C10.3499 13.9499 10.6499 11.5499 7.49995 10.4999C4.49995 9.59989 2.69995 12.4499 2.54995 14.0999C2.24995 17.8499 5.54995 22.0499 6.74995 23.5499C6.89995 23.9999 7.34995 23.9999 7.79995 23.9999C9.59995 23.5499 14.6999 21.8999 16.6499 18.5999C17.3999 16.9499 17.5499 13.6499 14.5499 12.7499Z" fill="url(#paint12_radial_3766_16489)"/>
<path fill-rule="evenodd" clip-rule="evenodd" d="M14.5499 12.7499C11.3999 11.8499 10.3499 13.9499 10.3499 13.9499C10.3499 13.9499 10.6499 11.5499 7.49995 10.4999C4.49995 9.59989 2.69995 12.4499 2.54995 14.0999C2.24995 17.8499 5.54995 22.0499 6.74995 23.5499C6.89995 23.9999 7.34995 23.9999 7.79995 23.9999C9.59995 23.5499 14.6999 21.8999 16.6499 18.5999C17.3999 16.9499 17.5499 13.6499 14.5499 12.7499Z" fill="url(#paint13_radial_3766_16489)"/>
<path fill-rule="evenodd" clip-rule="evenodd" d="M14.5499 12.7499C11.3999 11.8499 10.3499 13.9499 10.3499 13.9499C10.3499 13.9499 10.6499 11.5499 7.49995 10.4999C4.49995 9.59989 2.69995 12.4499 2.54995 14.0999C2.24995 17.8499 5.54995 22.0499 6.74995 23.5499C6.89995 23.9999 7.34995 23.9999 7.79995 23.9999C9.59995 23.5499 14.6999 21.8999 16.6499 18.5999C17.3999 16.9499 17.5499 13.6499 14.5499 12.7499Z" fill="url(#paint14_radial_3766_16489)"/>
<path fill-rule="evenodd" clip-rule="evenodd" d="M14.5499 12.7499C11.3999 11.8499 10.3499 13.9499 10.3499 13.9499C10.3499 13.9499 10.6499 11.5499 7.49995 10.4999C4.49995 9.59989 2.69995 12.4499 2.54995 14.0999C2.24995 17.8499 5.54995 22.0499 6.74995 23.5499C6.89995 23.9999 7.34995 23.9999 7.79995 23.9999C9.59995 23.5499 14.6999 21.8999 16.6499 18.5999C17.3999 16.9499 17.5499 13.6499 14.5499 12.7499Z" fill="url(#paint15_radial_3766_16489)"/>
<path fill-rule="evenodd" clip-rule="evenodd" d="M14.5499 12.7499C11.3999 11.8499 10.3499 13.9499 10.3499 13.9499C10.3499 13.9499 10.6499 11.5499 7.49995 10.4999C4.49995 9.59989 2.69995 12.4499 2.54995 14.0999C2.24995 17.8499 5.54995 22.0499 6.74995 23.5499C6.89995 23.9999 7.34995 23.9999 7.79995 23.9999C9.59995 23.5499 14.6999 21.8999 16.6499 18.5999C17.3999 16.9499 17.5499 13.6499 14.5499 12.7499Z" fill="url(#paint16_radial_3766_16489)"/>
<path fill-rule="evenodd" clip-rule="evenodd" d="M14.5499 12.7499C11.3999 11.8499 10.3499 13.9499 10.3499 13.9499C10.3499 13.9499 10.6499 11.5499 7.49995 10.4999C4.49995 9.59989 2.69995 12.4499 2.54995 14.0999C2.24995 17.8499 5.54995 22.0499 6.74995 23.5499C6.89995 23.9999 7.34995 23.9999 7.79995 23.9999C9.59995 23.5499 14.6999 21.8999 16.6499 18.5999C17.3999 16.9499 17.5499 13.6499 14.5499 12.7499Z" fill="url(#paint17_radial_3766_16489)"/>
<mask id="mask0_3766_16489" style="mask-type:alpha" maskUnits="userSpaceOnUse" x="0" y="0" width="24" height="24">
<path fill-rule="evenodd" clip-rule="evenodd" d="M24 12C24 18.6 18.6 24 12 24C5.4 24 0 18.6 0 12C0 5.4 5.4 0 12 0C18.6 0 24 5.4 24 12Z" fill="white"/>
</mask>
<g mask="url(#mask0_3766_16489)">
<path fill-rule="evenodd" clip-rule="evenodd" d="M1.94994 11.5497C1.19994 10.7997 -0.150057 10.3497 -0.300057 12.1497C-0.450057 13.4997 0.149943 15.8997 1.79994 17.2497C5.99994 20.5497 9.74994 18.7497 9.89994 16.3497C10.0499 14.5497 7.79994 14.6997 7.19994 14.6997V14.5497C7.34994 14.3997 7.64994 14.2497 7.79994 14.0997C8.39994 13.6497 8.09994 12.8997 7.34994 13.0497C7.19994 13.0497 5.39994 13.6497 4.19994 13.1997C2.99994 12.7497 2.84994 12.2997 1.94994 11.5497Z" fill="url(#paint18_radial_3766_16489)"/>
<path d="M21.4501 11.6999C21.9001 10.7999 22.6501 11.0999 23.1001 11.2499C23.7001 11.3999 24.1501 11.8499 24.1501 12.7499C24.1501 14.9999 23.8501 17.0999 21.9001 19.1999C18.4501 23.0999 12.6001 22.4999 12.0001 20.0999C11.5501 18.2999 13.6501 17.9999 14.4001 17.9999V17.8499C14.1001 17.6999 13.9501 17.5499 13.6501 17.3999C13.0501 16.9499 13.2001 16.0499 13.9501 16.1999C14.8501 16.3499 16.0501 16.6499 16.9501 16.4999C19.8001 16.1999 20.2501 13.9499 21.4501 11.6999Z" fill="url(#paint19_radial_3766_16489)"/>
</g>
</g>
<defs>
<linearGradient id="paint0_linear_3766_16489" x1="11.988" y1="22.812" x2="11.988" y2="1.788" gradientUnits="userSpaceOnUse">
<stop stop-color="#F28A2D"/>
<stop offset="1" stop-color="#FDE86F"/>
</linearGradient>
<radialGradient id="paint1_radial_3766_16489" cx="0" cy="0" r="1" gradientUnits="userSpaceOnUse" gradientTransform="translate(11.988 11.988) scale(12)">
<stop stop-color="#F28A2D" stop-opacity="0"/>
<stop offset="1" stop-color="#F08423" stop-opacity="0.34"/>
</radialGradient>
<radialGradient id="paint2_radial_3766_16489" cx="0" cy="0" r="1" gradientUnits="userSpaceOnUse" gradientTransform="translate(2.59602 12.4809) rotate(24.1484) scale(2.424 1.87494)">
<stop stop-color="#F28A2D" stop-opacity="0.5"/>
<stop offset="1" stop-color="#F28A2D" stop-opacity="0"/>
</radialGradient>
<radialGradient id="paint3_radial_3766_16489" cx="0" cy="0" r="1" gradientUnits="userSpaceOnUse" gradientTransform="translate(17.8016 17.6604) rotate(-38.243) scale(6.79201 2.47099)">
<stop stop-color="#F28A2D" stop-opacity="0.5"/>
<stop offset="1" stop-color="#F28A2D" stop-opacity="0"/>
</radialGradient>
<radialGradient id="paint4_radial_3766_16489" cx="0" cy="0" r="1" gradientUnits="userSpaceOnUse" gradientTransform="translate(7.64056 3.04464) rotate(-10.3559) scale(2.56801 0.510669)">
<stop stop-color="#D45F00" stop-opacity="0.15"/>
<stop offset="1" stop-color="#F28A2D" stop-opacity="0"/>
</radialGradient>
<radialGradient id="paint5_radial_3766_16489" cx="0" cy="0" r="1" gradientUnits="userSpaceOnUse" gradientTransform="translate(16.3371 3.22057) rotate(11.5352) scale(2.54399 0.505918)">
<stop stop-color="#D45F00" stop-opacity="0.15"/>
<stop offset="1" stop-color="#D45F00" stop-opacity="0"/>
</radialGradient>
<linearGradient id="paint6_linear_3766_16489" x1="11.9994" y1="7.96418" x2="11.9994" y2="10.1" gradientUnits="userSpaceOnUse">
<stop stop-color="#482314"/>
<stop offset="1" stop-color="#9A4111"/>
</linearGradient>
<radialGradient id="paint7_radial_3766_16489" cx="0" cy="0" r="1" gradientUnits="userSpaceOnUse" gradientTransform="translate(7.48928 6.40651) rotate(-90) scale(2.78944 2.78957)">
<stop stop-color="#3B446B"/>
<stop offset="0.688" stop-color="#202340"/>
</radialGradient>
<radialGradient id="paint8_radial_3766_16489" cx="0" cy="0" r="1" gradientUnits="userSpaceOnUse" gradientTransform="translate(16.5102 6.4048) rotate(-90) scale(2.78944 2.78957)">
<stop stop-color="#3B446B"/>
<stop offset="0.688" stop-color="#202340"/>
</radialGradient>
<radialGradient id="paint9_radial_3766_16489" cx="0" cy="0" r="1" gradientUnits="userSpaceOnUse" gradientTransform="translate(7.50202 2.56573) rotate(-104.427) scale(0.608192 2.81922)">
<stop stop-color="#E38200"/>
<stop offset="1" stop-color="#CD6700"/>
</radialGradient>
<radialGradient id="paint10_radial_3766_16489" cx="0" cy="0" r="1" gradientUnits="userSpaceOnUse" gradientTransform="translate(16.4021 2.29663) rotate(-79.0815) scale(0.640809 3.80283)">
<stop stop-color="#E38200"/>
<stop offset="1" stop-color="#CD6700"/>
</radialGradient>
<linearGradient id="paint11_linear_3766_16489" x1="10.13" y1="14.6215" x2="7.08395" y2="24.4346" gradientUnits="userSpaceOnUse">
<stop stop-color="#F34462"/>
<stop offset="1" stop-color="#CC0820"/>
</linearGradient>
<radialGradient id="paint12_radial_3766_16489" cx="0" cy="0" r="1" gradientUnits="userSpaceOnUse" gradientTransform="translate(13.2607 16.4024) rotate(20.3927) scale(3.94937 3.94939)">
<stop stop-color="#FF7091" stop-opacity="0.7"/>
<stop offset="1" stop-color="#FE6D8E" stop-opacity="0"/>
</radialGradient>
<radialGradient id="paint13_radial_3766_16489" cx="0" cy="0" r="1" gradientUnits="userSpaceOnUse" gradientTransform="translate(6.40231 14.4131) rotate(20.3927) scale(3.94937 3.94939)">
<stop stop-color="#FF7091" stop-opacity="0.7"/>
<stop offset="1" stop-color="#FE6D8E" stop-opacity="0"/>
</radialGradient>
<radialGradient id="paint14_radial_3766_16489" cx="0" cy="0" r="1" gradientUnits="userSpaceOnUse" gradientTransform="translate(5.97652 17.6435) rotate(101.61) scale(3.39099 4.6694)">
<stop stop-color="#9C0600"/>
<stop offset="1" stop-color="#9C0600" stop-opacity="0"/>
</radialGradient>
<radialGradient id="paint15_radial_3766_16489" cx="0" cy="0" r="1" gradientUnits="userSpaceOnUse" gradientTransform="translate(17.1211 17.989) rotate(30.6331) scale(2.04277 2.56374)">
<stop stop-color="#9C0600" stop-opacity="0.5"/>
<stop offset="1" stop-color="#9C0600" stop-opacity="0"/>
</radialGradient>
<radialGradient id="paint16_radial_3766_16489" cx="0" cy="0" r="1" gradientUnits="userSpaceOnUse" gradientTransform="translate(3.08504 13.6701) rotate(-20.1593) scale(1.7704 2.28145)">
<stop stop-color="#9C0600" stop-opacity="0.5"/>
<stop offset="1" stop-color="#9C0600" stop-opacity="0"/>
</radialGradient>
<radialGradient id="paint17_radial_3766_16489" cx="0" cy="0" r="1" gradientUnits="userSpaceOnUse" gradientTransform="translate(13.4025 20.8718) rotate(34.0715) scale(2.38324 2.58118)">
<stop stop-color="#9C0600" stop-opacity="0.999"/>
<stop offset="1" stop-color="#9C0600" stop-opacity="0"/>
</radialGradient>
<radialGradient id="paint18_radial_3766_16489" cx="0" cy="0" r="1" gradientUnits="userSpaceOnUse" gradientTransform="translate(-0.121384 11.2034) rotate(36.5187) scale(9.97275 9.97264)">
<stop stop-color="#EDA83A"/>
<stop offset="1" stop-color="#FFDC5E"/>
</radialGradient>
<radialGradient id="paint19_radial_3766_16489" cx="0" cy="0" r="1" gradientUnits="userSpaceOnUse" gradientTransform="translate(23.4811 11.6054) scale(13.269 13.269)">
<stop stop-color="#EDA83A"/>
<stop offset="1" stop-color="#FFDC5E"/>
</radialGradient>
<clipPath id="clip0_3766_16489">
<rect width="24" height="24" fill="white"/>
</clipPath>
</defs>
</svg>
