<svg width="24" height="24" viewBox="0 0 24 24" fill="none" xmlns="http://www.w3.org/2000/svg">
<g clip-path="url(#clip0_3766_16491)">
<path d="M24 11.9998C24 13.5757 23.6896 15.1363 23.0865 16.5923C22.4834 18.0483 21.5995 19.3712 20.4851 20.4856C19.3707 21.6 18.0478 22.4839 16.5918 23.087C15.1358 23.6901 13.5752 24.0005 11.9993 24.0005C10.4233 24.0005 8.86279 23.6901 7.4068 23.087C5.9508 22.4839 4.62785 21.6 3.51347 20.4856C2.3991 19.3712 1.51513 18.0483 0.912038 16.5923C0.308944 15.1363 -0.00146487 13.5757 -0.00146484 11.9998C-0.0014648 8.81698 1.2629 5.76454 3.51347 3.51396C5.76405 1.26338 8.81649 -0.000976563 11.9993 -0.000976562C15.1821 -0.000976563 18.2345 1.26338 20.4851 3.51396C22.7357 5.76454 24 8.81698 24 11.9998Z" fill="url(#paint0_linear_3766_16491)"/>
<path d="M4.5 12.012C4.5 15.0345 6.009 21 12 21C17.9895 21 19.5 15.0345 19.5 12.012C19.5 11.7735 17.085 10.5 12 10.5C6.915 10.5 4.5 11.7735 4.5 12.012Z" fill="url(#paint1_linear_3766_16491)"/>
<path d="M6.81152 18.75C8.01752 20.2425 9.67202 21 12.015 21C14.3595 21 15.9975 20.2425 17.2035 18.75C16.377 17.868 14.805 16.5 12.015 16.5C9.22502 16.5 7.63952 17.868 6.81152 18.75Z" fill="url(#paint2_linear_3766_16491)"/>
<path d="M9.31945 6.21567C9.71395 6.49767 10.0725 6.89817 9.93445 7.39767C9.82795 7.77867 9.64345 7.95117 9.30145 7.95267C8.13145 7.97067 6.73945 8.33667 5.54245 8.87217C5.44495 8.91567 5.24695 9.00417 5.04445 8.99967C4.85845 8.99517 4.66795 8.91267 4.55395 8.64417C4.45345 8.40867 4.44445 8.06217 4.96795 7.74717C5.78545 7.25217 6.85345 7.02717 7.83145 6.84117C7.21645 6.38667 6.55645 6.00117 5.85895 5.68917C5.21845 5.39817 5.28895 5.00367 5.37445 4.78917C5.56495 4.31367 6.28795 4.49517 6.99145 4.82817C7.81203 5.21142 8.59196 5.67626 9.31945 6.21567ZM14.685 6.21567C15.4112 5.67605 16.1902 5.21119 17.01 4.82817C17.715 4.49517 18.435 4.31367 18.627 4.78917C18.7125 5.00367 18.783 5.39817 18.1425 5.68917C17.4462 6.00079 16.7858 6.38705 16.173 6.84117C17.148 7.02567 18.2175 7.25217 19.0335 7.74717C19.557 8.06217 19.5465 8.40717 19.4475 8.64417C19.332 8.91417 19.143 8.99517 18.957 8.99967C18.7545 9.00417 18.5565 8.91567 18.459 8.87217C17.2635 8.33667 15.8715 7.97217 14.703 7.95417C14.361 7.95117 14.1765 7.77867 14.07 7.39917C13.9335 6.89967 14.2905 6.49917 14.685 6.21717V6.21567Z" fill="#2A3755"/>
</g>
<defs>
<linearGradient id="paint0_linear_3766_16491" x1="12" y1="2.45977" x2="12" y2="23.9998" gradientUnits="userSpaceOnUse">
<stop stop-color="#FEEA70"/>
<stop offset="1" stop-color="#F69B30"/>
</linearGradient>
<linearGradient id="paint1_linear_3766_16491" x1="12" y1="10.5" x2="12" y2="21" gradientUnits="userSpaceOnUse">
<stop stop-color="#472315"/>
<stop offset="1" stop-color="#8B3A0E"/>
</linearGradient>
<linearGradient id="paint2_linear_3766_16491" x1="12.0075" y1="16.5" x2="12.0075" y2="20.1855" gradientUnits="userSpaceOnUse">
<stop stop-color="#FC607C"/>
<stop offset="1" stop-color="#D91F3A"/>
</linearGradient>
<clipPath id="clip0_3766_16491">
<rect width="24" height="24" fill="white"/>
</clipPath>
</defs>
</svg>
