<svg width="24" height="24" viewBox="0 0 24 24" fill="none" xmlns="http://www.w3.org/2000/svg">
<g clip-path="url(#clip0_3766_16495)">
<path d="M24 11.9998C24 13.5757 23.6896 15.1363 23.0865 16.5923C22.4834 18.0483 21.5995 19.3712 20.4851 20.4856C19.3707 21.6 18.0478 22.4839 16.5918 23.087C15.1358 23.6901 13.5752 24.0005 11.9993 24.0005C10.4233 24.0005 8.86279 23.6901 7.4068 23.087C5.9508 22.4839 4.62785 21.6 3.51347 20.4856C2.3991 19.3712 1.51513 18.0483 0.912038 16.5923C0.308944 15.1363 -0.00146487 13.5757 -0.00146484 11.9998C-0.0014648 8.81698 1.2629 5.76454 3.51347 3.51396C5.76405 1.26338 8.81649 -0.000976563 11.9993 -0.000976562C15.1821 -0.000976563 18.2345 1.26338 20.4851 3.51396C22.7357 5.76454 24 8.81698 24 11.9998Z" fill="url(#paint0_linear_3766_16495)"/>
<path d="M8.46462 16.332C8.22762 19.0995 9.55512 21 12.0001 21C14.4451 21 15.7726 19.0995 15.5356 16.332C15.3001 13.563 13.8631 12 12.0001 12C10.1371 12 8.70012 13.563 8.46462 16.332Z" fill="url(#paint1_linear_3766_16495)"/>
<path d="M5.25 8.25C5.25 7.008 6.0885 6 7.125 6C8.1615 6 9 7.008 9 8.25C9 9.4935 8.1615 10.5 7.125 10.5C6.0885 10.5 5.25 9.4935 5.25 8.25ZM15 8.25C15 7.008 15.84 6 16.875 6C17.9115 6 18.75 7.008 18.75 8.25C18.75 9.4935 17.9115 10.5 16.875 10.5C15.84 10.5 15 9.4935 15 8.25Z" fill="url(#paint2_linear_3766_16495)"/>
<g filter="url(#filter0_i_3766_16495)">
<path d="M5.25 8.25C5.25 7.008 6.0885 6 7.125 6C8.1615 6 9 7.008 9 8.25C9 9.4935 8.1615 10.5 7.125 10.5C6.0885 10.5 5.25 9.4935 5.25 8.25ZM15 8.25C15 7.008 15.84 6 16.875 6C17.9115 6 18.75 7.008 18.75 8.25C18.75 9.4935 17.9115 10.5 16.875 10.5C15.84 10.5 15 9.4935 15 8.25Z" fill="black"/>
</g>
<path d="M6.7217 6.85027C7.0007 6.91327 7.1567 7.22827 7.0697 7.55527C6.9842 7.88077 6.6887 8.09527 6.4097 8.03077C6.1307 7.96777 5.9747 7.65277 6.0617 7.32577C6.1472 7.00177 6.4427 6.78577 6.7217 6.85027ZM16.7102 6.94477C17.0177 7.01527 17.1917 7.36477 17.0972 7.72477C17.0012 8.08927 16.6742 8.32477 16.3622 8.25577C16.0547 8.18677 15.8792 7.83577 15.9752 7.47577C16.0697 7.11127 16.3982 6.87577 16.7102 6.94477Z" fill="#4E506A"/>
<g filter="url(#filter1_d_3766_16495)">
<path d="M16.6018 2.54425C16.6798 2.53675 16.7578 2.53375 16.8373 2.53375C17.5678 2.53375 18.3223 2.83975 18.8953 3.37675C18.9591 3.43764 19.0074 3.51293 19.0361 3.5963C19.0648 3.67968 19.0731 3.76872 19.0603 3.85596C19.0475 3.94321 19.014 4.02612 18.9626 4.09777C18.9112 4.16941 18.8434 4.2277 18.7648 4.26775C18.6704 4.31356 18.5642 4.3295 18.4605 4.31341C18.3568 4.29733 18.2604 4.25001 18.1843 4.17775C17.7718 3.78775 17.2003 3.57775 16.6963 3.62275C16.5214 3.63601 16.3515 3.68747 16.1986 3.77352C16.0456 3.85956 15.9135 3.97809 15.8113 4.12075C15.7702 4.17633 15.7185 4.22316 15.659 4.25846C15.5996 4.29377 15.5337 4.31685 15.4653 4.32635C15.3968 4.33586 15.3271 4.33158 15.2604 4.31379C15.1936 4.296 15.131 4.26505 15.0763 4.22275C14.964 4.13396 14.8906 4.00501 14.8716 3.86312C14.8526 3.72123 14.8894 3.57749 14.9743 3.46225C15.1633 3.20086 15.4066 2.98347 15.6875 2.825C15.9685 2.66654 16.2804 2.57076 16.6018 2.54425ZM5.10433 3.37675C5.66083 2.84725 6.39433 2.54725 7.16233 2.53375C7.52489 2.52576 7.88395 2.60611 8.20852 2.76787C8.53309 2.92963 8.81342 3.16795 9.02533 3.46225C9.11023 3.57726 9.14734 3.72066 9.12888 3.86242C9.11043 4.00418 9.03784 4.1333 8.92633 4.22275C8.87149 4.26532 8.8087 4.2965 8.74164 4.31444C8.67458 4.33239 8.6046 4.33674 8.53584 4.32723C8.46707 4.31773 8.4009 4.29456 8.34122 4.2591C8.28154 4.22364 8.22955 4.1766 8.18833 4.12075C8.08604 3.97836 7.95379 3.86012 7.80089 3.77435C7.64799 3.68857 7.47815 3.63733 7.30333 3.62425C6.80083 3.57775 6.22783 3.78925 5.81533 4.17775C5.76479 4.22558 5.70511 4.26271 5.63986 4.28688C5.57461 4.31106 5.50515 4.32178 5.43565 4.31842C5.36615 4.31506 5.29804 4.29767 5.23543 4.26731C5.17282 4.23695 5.117 4.19424 5.07133 4.14175C4.97682 4.03472 4.92747 3.89524 4.93362 3.75259C4.93977 3.60995 5.00096 3.47524 5.10433 3.37675Z" fill="black"/>
</g>
<path d="M16.6018 2.54425C16.6798 2.53675 16.7578 2.53375 16.8373 2.53375C17.5678 2.53375 18.3223 2.83975 18.8953 3.37675C18.9591 3.43764 19.0074 3.51293 19.0361 3.5963C19.0648 3.67968 19.0731 3.76872 19.0603 3.85596C19.0475 3.94321 19.014 4.02612 18.9626 4.09777C18.9112 4.16941 18.8434 4.2277 18.7648 4.26775C18.6704 4.31356 18.5642 4.3295 18.4605 4.31341C18.3568 4.29733 18.2604 4.25001 18.1843 4.17775C17.7718 3.78775 17.2003 3.57775 16.6963 3.62275C16.5214 3.63601 16.3515 3.68747 16.1986 3.77352C16.0456 3.85956 15.9135 3.97809 15.8113 4.12075C15.7702 4.17633 15.7185 4.22316 15.659 4.25846C15.5996 4.29377 15.5337 4.31685 15.4653 4.32635C15.3968 4.33586 15.3271 4.33158 15.2604 4.31379C15.1936 4.296 15.131 4.26505 15.0763 4.22275C14.964 4.13396 14.8906 4.00501 14.8716 3.86312C14.8526 3.72123 14.8894 3.57749 14.9743 3.46225C15.1633 3.20086 15.4066 2.98347 15.6875 2.825C15.9685 2.66654 16.2804 2.57076 16.6018 2.54425ZM5.10433 3.37675C5.66083 2.84725 6.39433 2.54725 7.16233 2.53375C7.52489 2.52576 7.88395 2.60611 8.20852 2.76787C8.53309 2.92963 8.81342 3.16795 9.02533 3.46225C9.11023 3.57726 9.14734 3.72066 9.12888 3.86242C9.11043 4.00418 9.03784 4.1333 8.92633 4.22275C8.87149 4.26532 8.8087 4.2965 8.74164 4.31444C8.67458 4.33239 8.6046 4.33674 8.53584 4.32723C8.46707 4.31773 8.4009 4.29456 8.34122 4.2591C8.28154 4.22364 8.22955 4.1766 8.18833 4.12075C8.08604 3.97836 7.95379 3.86012 7.80089 3.77435C7.64799 3.68857 7.47815 3.63733 7.30333 3.62425C6.80083 3.57775 6.22783 3.78925 5.81533 4.17775C5.76479 4.22558 5.70511 4.26271 5.63986 4.28688C5.57461 4.31106 5.50515 4.32178 5.43565 4.31842C5.36615 4.31506 5.29804 4.29767 5.23543 4.26731C5.17282 4.23695 5.117 4.19424 5.07133 4.14175C4.97682 4.03472 4.92747 3.89524 4.93362 3.75259C4.93977 3.60995 5.00096 3.47524 5.10433 3.37675Z" fill="url(#paint3_linear_3766_16495)"/>
</g>
<defs>
<filter id="filter0_i_3766_16495" x="5.25" y="6" width="13.5" height="4.5" filterUnits="userSpaceOnUse" color-interpolation-filters="sRGB">
<feFlood flood-opacity="0" result="BackgroundImageFix"/>
<feBlend mode="normal" in="SourceGraphic" in2="BackgroundImageFix" result="shape"/>
<feColorMatrix in="SourceAlpha" type="matrix" values="0 0 0 0 0 0 0 0 0 0 0 0 0 0 0 0 0 0 127 0" result="hardAlpha"/>
<feOffset/>
<feGaussianBlur stdDeviation="0.5"/>
<feComposite in2="hardAlpha" operator="arithmetic" k2="-1" k3="1"/>
<feColorMatrix type="matrix" values="0 0 0 0 0.0980392 0 0 0 0 0.101961 0 0 0 0 0.2 0 0 0 0.819684 0"/>
<feBlend mode="normal" in2="shape" result="effect1_innerShadow_3766_16495"/>
</filter>
<filter id="filter1_d_3766_16495" x="1.93311" y="0.533203" width="20.1328" height="7.79883" filterUnits="userSpaceOnUse" color-interpolation-filters="sRGB">
<feFlood flood-opacity="0" result="BackgroundImageFix"/>
<feColorMatrix in="SourceAlpha" type="matrix" values="0 0 0 0 0 0 0 0 0 0 0 0 0 0 0 0 0 0 127 0" result="hardAlpha"/>
<feOffset dy="1"/>
<feGaussianBlur stdDeviation="1.5"/>
<feColorMatrix type="matrix" values="0 0 0 0 0.803922 0 0 0 0 0.388235 0 0 0 0 0.00392157 0 0 0 0.145679 0"/>
<feBlend mode="normal" in2="BackgroundImageFix" result="effect1_dropShadow_3766_16495"/>
<feBlend mode="normal" in="SourceGraphic" in2="effect1_dropShadow_3766_16495" result="shape"/>
</filter>
<linearGradient id="paint0_linear_3766_16495" x1="12" y1="2.45977" x2="12" y2="23.9998" gradientUnits="userSpaceOnUse">
<stop stop-color="#FEEA70"/>
<stop offset="1" stop-color="#F69B30"/>
</linearGradient>
<linearGradient id="paint1_linear_3766_16495" x1="12.0001" y1="12" x2="12.0001" y2="21" gradientUnits="userSpaceOnUse">
<stop stop-color="#472315"/>
<stop offset="1" stop-color="#8B3A0E"/>
</linearGradient>
<linearGradient id="paint2_linear_3766_16495" x1="12" y1="6" x2="12" y2="10.5" gradientUnits="userSpaceOnUse">
<stop stop-color="#191A33"/>
<stop offset="0.872" stop-color="#3B426A"/>
</linearGradient>
<linearGradient id="paint3_linear_3766_16495" x1="11.9998" y1="2.53225" x2="11.9998" y2="4.33225" gradientUnits="userSpaceOnUse">
<stop stop-color="#E78E0D"/>
<stop offset="1" stop-color="#CB6000"/>
</linearGradient>
<clipPath id="clip0_3766_16495">
<rect width="24" height="24" fill="white"/>
</clipPath>
</defs>
</svg>
